# xmcd CD database file
#
# Track frame offsets:
#	150
#	17097
#	37472
#	54677
#	74650
#	95867
#	118715
#	134675
#	151400
#	167885
#
# Disc length: 2621 seconds
#
# Revision: 3
# Processed by: cddbd v1.5.2PL0 Copyright (c) Steve Scherf et al.
# Submitted via: CDex 1.70beta2
#
DISCID=9e0a3b0a
DTITLE=Michel Jonasz - Au Theatre de la Ville (live - Paris)
DYEAR=1900
DGENRE=
TTITLE0=Du blues du blues du blues
TTITLE1=Super nana
TTITLE2=Y'a toi y'a moi 
TTITLE3=Les vacances au bord de la mer
TTITLE4=J'suis dans l'coton
TTITLE5=Y'a rien qui dure toujours
TTITLE6=Les odeurs d'ether
TTITLE7=Les reussites
TTITLE8=Dites-moi
TTITLE9=J'veux pas qu'tu t'en ailles
EXTD=
EXTT0=
EXTT1=
EXTT2=
EXTT3=
EXTT4=
EXTT5=
EXTT6=
EXTT7=
EXTT8=
EXTT9=
PLAYORDER=
